<?xml version="1.0" encoding="utf-8" standalone="no"?>
<!DOCTYPE svg PUBLIC "-//W3C//DTD SVG 1.1//EN"
  "http://www.w3.org/Graphics/SVG/1.1/DTD/svg11.dtd">
<svg xmlns:xlink="http://www.w3.org/1999/xlink" width="360pt" height="288pt" viewBox="0 0 360 288" xmlns="http://www.w3.org/2000/svg" version="1.1">
 <metadata>
  <rdf:RDF xmlns:dc="http://purl.org/dc/elements/1.1/" xmlns:cc="http://creativecommons.org/ns#" xmlns:rdf="http://www.w3.org/1999/02/22-rdf-syntax-ns#">
   <cc:Work>
    <dc:type rdf:resource="http://purl.org/dc/dcmitype/StillImage"/>
    <dc:date>2023-09-27T19:24:21.620436</dc:date>
    <dc:format>image/svg+xml</dc:format>
    <dc:creator>
     <cc:Agent>
      <dc:title>Matplotlib v3.7.1, https://matplotlib.org/</dc:title>
     </cc:Agent>
    </dc:creator>
   </cc:Work>
  </rdf:RDF>
 </metadata>
 <defs>
  <style type="text/css">*{stroke-linejoin: round; stroke-linecap: butt}</style>
 </defs>
 <g id="figure_1">
  <g id="patch_1">
   <path d="M 0 288 
L 360 288 
L 360 0 
L 0 0 
z
" style="fill: #ffffff"/>
  </g>
  <g id="axes_1">
   <g id="patch_2">
    <path d="M 45 252 
L 268.2 252 
L 268.2 34.56 
L 45 34.56 
z
" style="fill: #ffffff"/>
   </g>
   <g id="QuadMesh_1">
    <path d="M 45 34.56 
L 67.32 34.56 
L 67.32 56.304 
L 45 56.304 
L 45 34.56 
" clip-path="url(#p3074fe4192)" style="fill: none; stroke: #ffffff; stroke-width: 0.5"/>
    <path d="M 67.32 34.56 
L 89.64 34.56 
L 89.64 56.304 
L 67.32 56.304 
L 67.32 34.56 
" clip-path="url(#p3074fe4192)" style="fill: none; stroke: #ffffff; stroke-width: 0.5"/>
    <path d="M 89.64 34.56 
L 111.96 34.56 
L 111.96 56.304 
L 89.64 56.304 
L 89.64 34.56 
" clip-path="url(#p3074fe4192)" style="fill: none; stroke: #ffffff; stroke-width: 0.5"/>
    <path d="M 111.96 34.56 
L 134.28 34.56 
L 134.28 56.304 
L 111.96 56.304 
L 111.96 34.56 
" clip-path="url(#p3074fe4192)" style="fill: none; stroke: #ffffff; stroke-width: 0.5"/>
    <path d="M 134.28 34.56 
L 156.6 34.56 
L 156.6 56.304 
L 134.28 56.304 
L 134.28 34.56 
" clip-path="url(#p3074fe4192)" style="fill: none; stroke: #ffffff; stroke-width: 0.5"/>
    <path d="M 156.6 34.56 
L 178.92 34.56 
L 178.92 56.304 
L 156.6 56.304 
L 156.6 34.56 
" clip-path="url(#p3074fe4192)" style="fill: none; stroke: #ffffff; stroke-width: 0.5"/>
    <path d="M 178.92 34.56 
L 201.24 34.56 
L 201.24 56.304 
L 178.92 56.304 
L 178.92 34.56 
" clip-path="url(#p3074fe4192)" style="fill: none; stroke: #ffffff; stroke-width: 0.5"/>
    <path d="M 201.24 34.56 
L 223.56 34.56 
L 223.56 56.304 
L 201.24 56.304 
L 201.24 34.56 
" clip-path="url(#p3074fe4192)" style="fill: none; stroke: #ffffff; stroke-width: 0.5"/>
    <path d="M 223.56 34.56 
L 245.88 34.56 
L 245.88 56.304 
L 223.56 56.304 
L 223.56 34.56 
" clip-path="url(#p3074fe4192)" style="fill: none; stroke: #ffffff; stroke-width: 0.5"/>
    <path d="M 245.88 34.56 
L 268.2 34.56 
L 268.2 56.304 
L 245.88 56.304 
L 245.88 34.56 
" clip-path="url(#p3074fe4192)" style="fill: #db5f57; stroke: #ffffff; stroke-width: 0.5"/>
    <path d="M 45 56.304 
L 67.32 56.304 
L 67.32 78.048 
L 45 78.048 
L 45 56.304 
" clip-path="url(#p3074fe4192)" style="fill: none; stroke: #ffffff; stroke-width: 0.5"/>
    <path d="M 67.32 56.304 
L 89.64 56.304 
L 89.64 78.048 
L 67.32 78.048 
L 67.32 56.304 
" clip-path="url(#p3074fe4192)" style="fill: none; stroke: #ffffff; stroke-width: 0.5"/>
    <path d="M 89.64 56.304 
L 111.96 56.304 
L 111.96 78.048 
L 89.64 78.048 
L 89.64 56.304 
" clip-path="url(#p3074fe4192)" style="fill: none; stroke: #ffffff; stroke-width: 0.5"/>
    <path d="M 111.96 56.304 
L 134.28 56.304 
L 134.28 78.048 
L 111.96 78.048 
L 111.96 56.304 
" clip-path="url(#p3074fe4192)" style="fill: none; stroke: #ffffff; stroke-width: 0.5"/>
    <path d="M 134.28 56.304 
L 156.6 56.304 
L 156.6 78.048 
L 134.28 78.048 
L 134.28 56.304 
" clip-path="url(#p3074fe4192)" style="fill: none; stroke: #ffffff; stroke-width: 0.5"/>
    <path d="M 156.6 56.304 
L 178.92 56.304 
L 178.92 78.048 
L 156.6 78.048 
L 156.6 56.304 
" clip-path="url(#p3074fe4192)" style="fill: none; stroke: #ffffff; stroke-width: 0.5"/>
    <path d="M 178.92 56.304 
L 201.24 56.304 
L 201.24 78.048 
L 178.92 78.048 
L 178.92 56.304 
" clip-path="url(#p3074fe4192)" style="fill: none; stroke: #ffffff; stroke-width: 0.5"/>
    <path d="M 201.24 56.304 
L 223.56 56.304 
L 223.56 78.048 
L 201.24 78.048 
L 201.24 56.304 
" clip-path="url(#p3074fe4192)" style="fill: none; stroke: #ffffff; stroke-width: 0.5"/>
    <path d="M 223.56 56.304 
L 245.88 56.304 
L 245.88 78.048 
L 223.56 78.048 
L 223.56 56.304 
" clip-path="url(#p3074fe4192)" style="fill: #57d3db; stroke: #ffffff; stroke-width: 0.5"/>
    <path d="M 245.88 56.304 
L 268.2 56.304 
L 268.2 78.048 
L 245.88 78.048 
L 245.88 56.304 
" clip-path="url(#p3074fe4192)" style="fill: #db5f57; stroke: #ffffff; stroke-width: 0.5"/>
    <path d="M 45 78.048 
L 67.32 78.048 
L 67.32 99.792 
L 45 99.792 
L 45 78.048 
" clip-path="url(#p3074fe4192)" style="fill: none; stroke: #ffffff; stroke-width: 0.5"/>
    <path d="M 67.32 78.048 
L 89.64 78.048 
L 89.64 99.792 
L 67.32 99.792 
L 67.32 78.048 
" clip-path="url(#p3074fe4192)" style="fill: none; stroke: #ffffff; stroke-width: 0.5"/>
    <path d="M 89.64 78.048 
L 111.96 78.048 
L 111.96 99.792 
L 89.64 99.792 
L 89.64 78.048 
" clip-path="url(#p3074fe4192)" style="fill: none; stroke: #ffffff; stroke-width: 0.5"/>
    <path d="M 111.96 78.048 
L 134.28 78.048 
L 134.28 99.792 
L 111.96 99.792 
L 111.96 78.048 
" clip-path="url(#p3074fe4192)" style="fill: none; stroke: #ffffff; stroke-width: 0.5"/>
    <path d="M 134.28 78.048 
L 156.6 78.048 
L 156.6 99.792 
L 134.28 99.792 
L 134.28 78.048 
" clip-path="url(#p3074fe4192)" style="fill: none; stroke: #ffffff; stroke-width: 0.5"/>
    <path d="M 156.6 78.048 
L 178.92 78.048 
L 178.92 99.792 
L 156.6 99.792 
L 156.6 78.048 
" clip-path="url(#p3074fe4192)" style="fill: none; stroke: #ffffff; stroke-width: 0.5"/>
    <path d="M 178.92 78.048 
L 201.24 78.048 
L 201.24 99.792 
L 178.92 99.792 
L 178.92 78.048 
" clip-path="url(#p3074fe4192)" style="fill: none; stroke: #ffffff; stroke-width: 0.5"/>
    <path d="M 201.24 78.048 
L 223.56 78.048 
L 223.56 99.792 
L 201.24 99.792 
L 201.24 78.048 
" clip-path="url(#p3074fe4192)" style="fill: #57d3db; stroke: #ffffff; stroke-width: 0.5"/>
    <path d="M 223.56 78.048 
L 245.88 78.048 
L 245.88 99.792 
L 223.56 99.792 
L 223.56 78.048 
" clip-path="url(#p3074fe4192)" style="fill: #db5f57; stroke: #ffffff; stroke-width: 0.5"/>
    <path d="M 245.88 78.048 
L 268.2 78.048 
L 268.2 99.792 
L 245.88 99.792 
L 245.88 78.048 
" clip-path="url(#p3074fe4192)" style="fill: #db5f57; stroke: #ffffff; stroke-width: 0.5"/>
    <path d="M 45 99.792 
L 67.32 99.792 
L 67.32 121.536 
L 45 121.536 
L 45 99.792 
" clip-path="url(#p3074fe4192)" style="fill: none; stroke: #ffffff; stroke-width: 0.5"/>
    <path d="M 67.32 99.792 
L 89.64 99.792 
L 89.64 121.536 
L 67.32 121.536 
L 67.32 99.792 
" clip-path="url(#p3074fe4192)" style="fill: none; stroke: #ffffff; stroke-width: 0.5"/>
    <path d="M 89.64 99.792 
L 111.96 99.792 
L 111.96 121.536 
L 89.64 121.536 
L 89.64 99.792 
" clip-path="url(#p3074fe4192)" style="fill: none; stroke: #ffffff; stroke-width: 0.5"/>
    <path d="M 111.96 99.792 
L 134.28 99.792 
L 134.28 121.536 
L 111.96 121.536 
L 111.96 99.792 
" clip-path="url(#p3074fe4192)" style="fill: none; stroke: #ffffff; stroke-width: 0.5"/>
    <path d="M 134.28 99.792 
L 156.6 99.792 
L 156.6 121.536 
L 134.28 121.536 
L 134.28 99.792 
" clip-path="url(#p3074fe4192)" style="fill: none; stroke: #ffffff; stroke-width: 0.5"/>
    <path d="M 156.6 99.792 
L 178.92 99.792 
L 178.92 121.536 
L 156.6 121.536 
L 156.6 99.792 
" clip-path="url(#p3074fe4192)" style="fill: none; stroke: #ffffff; stroke-width: 0.5"/>
    <path d="M 178.92 99.792 
L 201.24 99.792 
L 201.24 121.536 
L 178.92 121.536 
L 178.92 99.792 
" clip-path="url(#p3074fe4192)" style="fill: #57d3db; stroke: #ffffff; stroke-width: 0.5"/>
    <path d="M 201.24 99.792 
L 223.56 99.792 
L 223.56 121.536 
L 201.24 121.536 
L 201.24 99.792 
" clip-path="url(#p3074fe4192)" style="fill: #57d3db; stroke: #ffffff; stroke-width: 0.5"/>
    <path d="M 223.56 99.792 
L 245.88 99.792 
L 245.88 121.536 
L 223.56 121.536 
L 223.56 99.792 
" clip-path="url(#p3074fe4192)" style="fill: #db5f57; stroke: #ffffff; stroke-width: 0.5"/>
    <path d="M 245.88 99.792 
L 268.2 99.792 
L 268.2 121.536 
L 245.88 121.536 
L 245.88 99.792 
" clip-path="url(#p3074fe4192)" style="fill: #db5f57; stroke: #ffffff; stroke-width: 0.5"/>
    <path d="M 45 121.536 
L 67.32 121.536 
L 67.32 143.28 
L 45 143.28 
L 45 121.536 
" clip-path="url(#p3074fe4192)" style="fill: none; stroke: #ffffff; stroke-width: 0.5"/>
    <path d="M 67.32 121.536 
L 89.64 121.536 
L 89.64 143.28 
L 67.32 143.28 
L 67.32 121.536 
" clip-path="url(#p3074fe4192)" style="fill: none; stroke: #ffffff; stroke-width: 0.5"/>
    <path d="M 89.64 121.536 
L 111.96 121.536 
L 111.96 143.28 
L 89.64 143.28 
L 89.64 121.536 
" clip-path="url(#p3074fe4192)" style="fill: none; stroke: #ffffff; stroke-width: 0.5"/>
    <path d="M 111.96 121.536 
L 134.28 121.536 
L 134.28 143.28 
L 111.96 143.28 
L 111.96 121.536 
" clip-path="url(#p3074fe4192)" style="fill: none; stroke: #ffffff; stroke-width: 0.5"/>
    <path d="M 134.28 121.536 
L 156.6 121.536 
L 156.6 143.28 
L 134.28 143.28 
L 134.28 121.536 
" clip-path="url(#p3074fe4192)" style="fill: none; stroke: #ffffff; stroke-width: 0.5"/>
    <path d="M 156.6 121.536 
L 178.92 121.536 
L 178.92 143.28 
L 156.6 143.28 
L 156.6 121.536 
" clip-path="url(#p3074fe4192)" style="fill: #57d3db; stroke: #ffffff; stroke-width: 0.5"/>
    <path d="M 178.92 121.536 
L 201.24 121.536 
L 201.24 143.28 
L 178.92 143.28 
L 178.92 121.536 
" clip-path="url(#p3074fe4192)" style="fill: #57d3db; stroke: #ffffff; stroke-width: 0.5"/>
    <path d="M 201.24 121.536 
L 223.56 121.536 
L 223.56 143.28 
L 201.24 143.28 
L 201.24 121.536 
" clip-path="url(#p3074fe4192)" style="fill: #db5f57; stroke: #ffffff; stroke-width: 0.5"/>
    <path d="M 223.56 121.536 
L 245.88 121.536 
L 245.88 143.28 
L 223.56 143.28 
L 223.56 121.536 
" clip-path="url(#p3074fe4192)" style="fill: #db5f57; stroke: #ffffff; stroke-width: 0.5"/>
    <path d="M 245.88 121.536 
L 268.2 121.536 
L 268.2 143.28 
L 245.88 143.28 
L 245.88 121.536 
" clip-path="url(#p3074fe4192)" style="fill: #db5f57; stroke: #ffffff; stroke-width: 0.5"/>
    <path d="M 45 143.28 
L 67.32 143.28 
L 67.32 165.024 
L 45 165.024 
L 45 143.28 
" clip-path="url(#p3074fe4192)" style="fill: none; stroke: #ffffff; stroke-width: 0.5"/>
    <path d="M 67.32 143.28 
L 89.64 143.28 
L 89.64 165.024 
L 67.32 165.024 
L 67.32 143.28 
" clip-path="url(#p3074fe4192)" style="fill: none; stroke: #ffffff; stroke-width: 0.5"/>
    <path d="M 89.64 143.28 
L 111.96 143.28 
L 111.96 165.024 
L 89.64 165.024 
L 89.64 143.28 
" clip-path="url(#p3074fe4192)" style="fill: none; stroke: #ffffff; stroke-width: 0.5"/>
    <path d="M 111.96 143.28 
L 134.28 143.28 
L 134.28 165.024 
L 111.96 165.024 
L 111.96 143.28 
" clip-path="url(#p3074fe4192)" style="fill: none; stroke: #ffffff; stroke-width: 0.5"/>
    <path d="M 134.28 143.28 
L 156.6 143.28 
L 156.6 165.024 
L 134.28 165.024 
L 134.28 143.28 
" clip-path="url(#p3074fe4192)" style="fill: #57d3db; stroke: #ffffff; stroke-width: 0.5"/>
    <path d="M 156.6 143.28 
L 178.92 143.28 
L 178.92 165.024 
L 156.6 165.024 
L 156.6 143.28 
" clip-path="url(#p3074fe4192)" style="fill: #57d3db; stroke: #ffffff; stroke-width: 0.5"/>
    <path d="M 178.92 143.28 
L 201.24 143.28 
L 201.24 165.024 
L 178.92 165.024 
L 178.92 143.28 
" clip-path="url(#p3074fe4192)" style="fill: #57d3db; stroke: #ffffff; stroke-width: 0.5"/>
    <path d="M 201.24 143.28 
L 223.56 143.28 
L 223.56 165.024 
L 201.24 165.024 
L 201.24 143.28 
" clip-path="url(#p3074fe4192)" style="fill: #db5f57; stroke: #ffffff; stroke-width: 0.5"/>
    <path d="M 223.56 143.28 
L 245.88 143.28 
L 245.88 165.024 
L 223.56 165.024 
L 223.56 143.28 
" clip-path="url(#p3074fe4192)" style="fill: #db5f57; stroke: #ffffff; stroke-width: 0.5"/>
    <path d="M 245.88 143.28 
L 268.2 143.28 
L 268.2 165.024 
L 245.88 165.024 
L 245.88 143.28 
" clip-path="url(#p3074fe4192)" style="fill: #db5f57; stroke: #ffffff; stroke-width: 0.5"/>
    <path d="M 45 165.024 
L 67.32 165.024 
L 67.32 186.768 
L 45 186.768 
L 45 165.024 
" clip-path="url(#p3074fe4192)" style="fill: none; stroke: #ffffff; stroke-width: 0.5"/>
    <path d="M 67.32 165.024 
L 89.64 165.024 
L 89.64 186.768 
L 67.32 186.768 
L 67.32 165.024 
" clip-path="url(#p3074fe4192)" style="fill: none; stroke: #ffffff; stroke-width: 0.5"/>
    <path d="M 89.64 165.024 
L 111.96 165.024 
L 111.96 186.768 
L 89.64 186.768 
L 89.64 165.024 
" clip-path="url(#p3074fe4192)" style="fill: none; stroke: #ffffff; stroke-width: 0.5"/>
    <path d="M 111.96 165.024 
L 134.28 165.024 
L 134.28 186.768 
L 111.96 186.768 
L 111.96 165.024 
" clip-path="url(#p3074fe4192)" style="fill: #57d3db; stroke: #ffffff; stroke-width: 0.5"/>
    <path d="M 134.28 165.024 
L 156.6 165.024 
L 156.6 186.768 
L 134.28 186.768 
L 134.28 165.024 
" clip-path="url(#p3074fe4192)" style="fill: #57d3db; stroke: #ffffff; stroke-width: 0.5"/>
    <path d="M 156.6 165.024 
L 178.92 165.024 
L 178.92 186.768 
L 156.6 186.768 
L 156.6 165.024 
" clip-path="url(#p3074fe4192)" style="fill: #57d3db; stroke: #ffffff; stroke-width: 0.5"/>
    <path d="M 178.92 165.024 
L 201.24 165.024 
L 201.24 186.768 
L 178.92 186.768 
L 178.92 165.024 
" clip-path="url(#p3074fe4192)" style="fill: #db5f57; stroke: #ffffff; stroke-width: 0.5"/>
    <path d="M 201.24 165.024 
L 223.56 165.024 
L 223.56 186.768 
L 201.24 186.768 
L 201.24 165.024 
" clip-path="url(#p3074fe4192)" style="fill: #db5f57; stroke: #ffffff; stroke-width: 0.5"/>
    <path d="M 223.56 165.024 
L 245.88 165.024 
L 245.88 186.768 
L 223.56 186.768 
L 223.56 165.024 
" clip-path="url(#p3074fe4192)" style="fill: #db5f57; stroke: #ffffff; stroke-width: 0.5"/>
    <path d="M 245.88 165.024 
L 268.2 165.024 
L 268.2 186.768 
L 245.88 186.768 
L 245.88 165.024 
" clip-path="url(#p3074fe4192)" style="fill: #db5f57; stroke: #ffffff; stroke-width: 0.5"/>
    <path d="M 45 186.768 
L 67.32 186.768 
L 67.32 208.512 
L 45 208.512 
L 45 186.768 
" clip-path="url(#p3074fe4192)" style="fill: none; stroke: #ffffff; stroke-width: 0.5"/>
    <path d="M 67.32 186.768 
L 89.64 186.768 
L 89.64 208.512 
L 67.32 208.512 
L 67.32 186.768 
" clip-path="url(#p3074fe4192)" style="fill: none; stroke: #ffffff; stroke-width: 0.5"/>
    <path d="M 89.64 186.768 
L 111.96 186.768 
L 111.96 208.512 
L 89.64 208.512 
L 89.64 186.768 
" clip-path="url(#p3074fe4192)" style="fill: #57d3db; stroke: #ffffff; stroke-width: 0.5"/>
    <path d="M 111.96 186.768 
L 134.28 186.768 
L 134.28 208.512 
L 111.96 208.512 
L 111.96 186.768 
" clip-path="url(#p3074fe4192)" style="fill: #57d3db; stroke: #ffffff; stroke-width: 0.5"/>
    <path d="M 134.28 186.768 
L 156.6 186.768 
L 156.6 208.512 
L 134.28 208.512 
L 134.28 186.768 
" clip-path="url(#p3074fe4192)" style="fill: #57d3db; stroke: #ffffff; stroke-width: 0.5"/>
    <path d="M 156.6 186.768 
L 178.92 186.768 
L 178.92 208.512 
L 156.6 208.512 
L 156.6 186.768 
" clip-path="url(#p3074fe4192)" style="fill: #db5f57; stroke: #ffffff; stroke-width: 0.5"/>
    <path d="M 178.92 186.768 
L 201.24 186.768 
L 201.24 208.512 
L 178.92 208.512 
L 178.92 186.768 
" clip-path="url(#p3074fe4192)" style="fill: #db5f57; stroke: #ffffff; stroke-width: 0.5"/>
    <path d="M 201.24 186.768 
L 223.56 186.768 
L 223.56 208.512 
L 201.24 208.512 
L 201.24 186.768 
" clip-path="url(#p3074fe4192)" style="fill: #db5f57; stroke: #ffffff; stroke-width: 0.5"/>
    <path d="M 223.56 186.768 
L 245.88 186.768 
L 245.88 208.512 
L 223.56 208.512 
L 223.56 186.768 
" clip-path="url(#p3074fe4192)" style="fill: #db5f57; stroke: #ffffff; stroke-width: 0.5"/>
    <path d="M 245.88 186.768 
L 268.2 186.768 
L 268.2 208.512 
L 245.88 208.512 
L 245.88 186.768 
" clip-path="url(#p3074fe4192)" style="fill: #db5f57; stroke: #ffffff; stroke-width: 0.5"/>
    <path d="M 45 208.512 
L 67.32 208.512 
L 67.32 230.256 
L 45 230.256 
L 45 208.512 
" clip-path="url(#p3074fe4192)" style="fill: none; stroke: #ffffff; stroke-width: 0.5"/>
    <path d="M 67.32 208.512 
L 89.64 208.512 
L 89.64 230.256 
L 67.32 230.256 
L 67.32 208.512 
" clip-path="url(#p3074fe4192)" style="fill: #57d3db; stroke: #ffffff; stroke-width: 0.5"/>
    <path d="M 89.64 208.512 
L 111.96 208.512 
L 111.96 230.256 
L 89.64 230.256 
L 89.64 208.512 
" clip-path="url(#p3074fe4192)" style="fill: #57d3db; stroke: #ffffff; stroke-width: 0.5"/>
    <path d="M 111.96 208.512 
L 134.28 208.512 
L 134.28 230.256 
L 111.96 230.256 
L 111.96 208.512 
" clip-path="url(#p3074fe4192)" style="fill: #57d3db; stroke: #ffffff; stroke-width: 0.5"/>
    <path d="M 134.28 208.512 
L 156.6 208.512 
L 156.6 230.256 
L 134.28 230.256 
L 134.28 208.512 
" clip-path="url(#p3074fe4192)" style="fill: #57d3db; stroke: #ffffff; stroke-width: 0.5"/>
    <path d="M 156.6 208.512 
L 178.92 208.512 
L 178.92 230.256 
L 156.6 230.256 
L 156.6 208.512 
" clip-path="url(#p3074fe4192)" style="fill: #db5f57; stroke: #ffffff; stroke-width: 0.5"/>
    <path d="M 178.92 208.512 
L 201.24 208.512 
L 201.24 230.256 
L 178.92 230.256 
L 178.92 208.512 
" clip-path="url(#p3074fe4192)" style="fill: #db5f57; stroke: #ffffff; stroke-width: 0.5"/>
    <path d="M 201.24 208.512 
L 223.56 208.512 
L 223.56 230.256 
L 201.24 230.256 
L 201.24 208.512 
" clip-path="url(#p3074fe4192)" style="fill: #db5f57; stroke: #ffffff; stroke-width: 0.5"/>
    <path d="M 223.56 208.512 
L 245.88 208.512 
L 245.88 230.256 
L 223.56 230.256 
L 223.56 208.512 
" clip-path="url(#p3074fe4192)" style="fill: #db5f57; stroke: #ffffff; stroke-width: 0.5"/>
    <path d="M 245.88 208.512 
L 268.2 208.512 
L 268.2 230.256 
L 245.88 230.256 
L 245.88 208.512 
" clip-path="url(#p3074fe4192)" style="fill: #db5f57; stroke: #ffffff; stroke-width: 0.5"/>
    <path d="M 45 230.256 
L 67.32 230.256 
L 67.32 252 
L 45 252 
L 45 230.256 
" clip-path="url(#p3074fe4192)" style="fill: #57d3db; stroke: #ffffff; stroke-width: 0.5"/>
    <path d="M 67.32 230.256 
L 89.64 230.256 
L 89.64 252 
L 67.32 252 
L 67.32 230.256 
" clip-path="url(#p3074fe4192)" style="fill: #57d3db; stroke: #ffffff; stroke-width: 0.5"/>
    <path d="M 89.64 230.256 
L 111.96 230.256 
L 111.96 252 
L 89.64 252 
L 89.64 230.256 
" clip-path="url(#p3074fe4192)" style="fill: #57d3db; stroke: #ffffff; stroke-width: 0.5"/>
    <path d="M 111.96 230.256 
L 134.28 230.256 
L 134.28 252 
L 111.96 252 
L 111.96 230.256 
" clip-path="url(#p3074fe4192)" style="fill: #57d3db; stroke: #ffffff; stroke-width: 0.5"/>
    <path d="M 134.28 230.256 
L 156.6 230.256 
L 156.6 252 
L 134.28 252 
L 134.28 230.256 
" clip-path="url(#p3074fe4192)" style="fill: #db5f57; stroke: #ffffff; stroke-width: 0.5"/>
    <path d="M 156.6 230.256 
L 178.92 230.256 
L 178.92 252 
L 156.6 252 
L 156.6 230.256 
" clip-path="url(#p3074fe4192)" style="fill: #db5f57; stroke: #ffffff; stroke-width: 0.5"/>
    <path d="M 178.92 230.256 
L 201.24 230.256 
L 201.24 252 
L 178.92 252 
L 178.92 230.256 
" clip-path="url(#p3074fe4192)" style="fill: #db5f57; stroke: #ffffff; stroke-width: 0.5"/>
    <path d="M 201.24 230.256 
L 223.56 230.256 
L 223.56 252 
L 201.24 252 
L 201.24 230.256 
" clip-path="url(#p3074fe4192)" style="fill: #db5f57; stroke: #ffffff; stroke-width: 0.5"/>
    <path d="M 223.56 230.256 
L 245.88 230.256 
L 245.88 252 
L 223.56 252 
L 223.56 230.256 
" clip-path="url(#p3074fe4192)" style="fill: #db5f57; stroke: #ffffff; stroke-width: 0.5"/>
    <path d="M 245.88 230.256 
L 268.2 230.256 
L 268.2 252 
L 245.88 252 
L 245.88 230.256 
" clip-path="url(#p3074fe4192)" style="fill: #db5f57; stroke: #ffffff; stroke-width: 0.5"/>
   </g>
   <g id="matplotlib.axis_1">
    <g id="xtick_1">
     <g id="line2d_1">
      <defs>
       <path id="m2fc636fd7a" d="M 0 0 
L 0 3.5 
" style="stroke: #000000; stroke-width: 0.8"/>
      </defs>
      <g>
       <use xlink:href="#m2fc636fd7a" x="56.16" y="252" style="stroke: #000000; stroke-width: 0.8"/>
      </g>
     </g>
     <g id="text_1">
      <!-- 0 -->
      <g transform="translate(51.70625 269.637812) scale(0.14 -0.14)">
       <defs>
        <path id="DejaVuSans-30" d="M 2034 4250 
Q 1547 4250 1301 3770 
Q 1056 3291 1056 2328 
Q 1056 1369 1301 889 
Q 1547 409 2034 409 
Q 2525 409 2770 889 
Q 3016 1369 3016 2328 
Q 3016 3291 2770 3770 
Q 2525 4250 2034 4250 
z
M 2034 4750 
Q 2819 4750 3233 4129 
Q 3647 3509 3647 2328 
Q 3647 1150 3233 529 
Q 2819 -91 2034 -91 
Q 1250 -91 836 529 
Q 422 1150 422 2328 
Q 422 3509 836 4129 
Q 1250 4750 2034 4750 
z
" transform="scale(0.015625)"/>
       </defs>
       <use xlink:href="#DejaVuSans-30"/>
      </g>
     </g>
    </g>
    <g id="xtick_2">
     <g id="line2d_2">
      <g>
       <use xlink:href="#m2fc636fd7a" x="78.48" y="252" style="stroke: #000000; stroke-width: 0.8"/>
      </g>
     </g>
     <g id="text_2">
      <!-- 1 -->
      <g transform="translate(74.02625 269.637812) scale(0.14 -0.14)">
       <defs>
        <path id="DejaVuSans-31" d="M 794 531 
L 1825 531 
L 1825 4091 
L 703 3866 
L 703 4441 
L 1819 4666 
L 2450 4666 
L 2450 531 
L 3481 531 
L 3481 0 
L 794 0 
L 794 531 
z
" transform="scale(0.015625)"/>
       </defs>
       <use xlink:href="#DejaVuSans-31"/>
      </g>
     </g>
    </g>
    <g id="xtick_3">
     <g id="line2d_3">
      <g>
       <use xlink:href="#m2fc636fd7a" x="100.8" y="252" style="stroke: #000000; stroke-width: 0.8"/>
      </g>
     </g>
     <g id="text_3">
      <!-- 2 -->
      <g transform="translate(96.34625 269.637812) scale(0.14 -0.14)">
       <defs>
        <path id="DejaVuSans-32" d="M 1228 531 
L 3431 531 
L 3431 0 
L 469 0 
L 469 531 
Q 828 903 1448 1529 
Q 2069 2156 2228 2338 
Q 2531 2678 2651 2914 
Q 2772 3150 2772 3378 
Q 2772 3750 2511 3984 
Q 2250 4219 1831 4219 
Q 1534 4219 1204 4116 
Q 875 4013 500 3803 
L 500 4441 
Q 881 4594 1212 4672 
Q 1544 4750 1819 4750 
Q 2544 4750 2975 4387 
Q 3406 4025 3406 3419 
Q 3406 3131 3298 2873 
Q 3191 2616 2906 2266 
Q 2828 2175 2409 1742 
Q 1991 1309 1228 531 
z
" transform="scale(0.015625)"/>
       </defs>
       <use xlink:href="#DejaVuSans-32"/>
      </g>
     </g>
    </g>
    <g id="xtick_4">
     <g id="line2d_4">
      <g>
       <use xlink:href="#m2fc636fd7a" x="123.12" y="252" style="stroke: #000000; stroke-width: 0.8"/>
      </g>
     </g>
     <g id="text_4">
      <!-- 3 -->
      <g transform="translate(118.66625 269.637812) scale(0.14 -0.14)">
       <defs>
        <path id="DejaVuSans-33" d="M 2597 2516 
Q 3050 2419 3304 2112 
Q 3559 1806 3559 1356 
Q 3559 666 3084 287 
Q 2609 -91 1734 -91 
Q 1441 -91 1130 -33 
Q 819 25 488 141 
L 488 750 
Q 750 597 1062 519 
Q 1375 441 1716 441 
Q 2309 441 2620 675 
Q 2931 909 2931 1356 
Q 2931 1769 2642 2001 
Q 2353 2234 1838 2234 
L 1294 2234 
L 1294 2753 
L 1863 2753 
Q 2328 2753 2575 2939 
Q 2822 3125 2822 3475 
Q 2822 3834 2567 4026 
Q 2313 4219 1838 4219 
Q 1578 4219 1281 4162 
Q 984 4106 628 3988 
L 628 4550 
Q 988 4650 1302 4700 
Q 1616 4750 1894 4750 
Q 2613 4750 3031 4423 
Q 3450 4097 3450 3541 
Q 3450 3153 3228 2886 
Q 3006 2619 2597 2516 
z
" transform="scale(0.015625)"/>
       </defs>
       <use xlink:href="#DejaVuSans-33"/>
      </g>
     </g>
    </g>
    <g id="xtick_5">
     <g id="line2d_5">
      <g>
       <use xlink:href="#m2fc636fd7a" x="145.44" y="252" style="stroke: #000000; stroke-width: 0.8"/>
      </g>
     </g>
     <g id="text_5">
      <!-- 4 -->
      <g transform="translate(140.98625 269.637812) scale(0.14 -0.14)">
       <defs>
        <path id="DejaVuSans-34" d="M 2419 4116 
L 825 1625 
L 2419 1625 
L 2419 4116 
z
M 2253 4666 
L 3047 4666 
L 3047 1625 
L 3713 1625 
L 3713 1100 
L 3047 1100 
L 3047 0 
L 2419 0 
L 2419 1100 
L 313 1100 
L 313 1709 
L 2253 4666 
z
" transform="scale(0.015625)"/>
       </defs>
       <use xlink:href="#DejaVuSans-34"/>
      </g>
     </g>
    </g>
    <g id="xtick_6">
     <g id="line2d_6">
      <g>
       <use xlink:href="#m2fc636fd7a" x="167.76" y="252" style="stroke: #000000; stroke-width: 0.8"/>
      </g>
     </g>
     <g id="text_6">
      <!-- 5 -->
      <g transform="translate(163.30625 269.637812) scale(0.14 -0.14)">
       <defs>
        <path id="DejaVuSans-35" d="M 691 4666 
L 3169 4666 
L 3169 4134 
L 1269 4134 
L 1269 2991 
Q 1406 3038 1543 3061 
Q 1681 3084 1819 3084 
Q 2600 3084 3056 2656 
Q 3513 2228 3513 1497 
Q 3513 744 3044 326 
Q 2575 -91 1722 -91 
Q 1428 -91 1123 -41 
Q 819 9 494 109 
L 494 744 
Q 775 591 1075 516 
Q 1375 441 1709 441 
Q 2250 441 2565 725 
Q 2881 1009 2881 1497 
Q 2881 1984 2565 2268 
Q 2250 2553 1709 2553 
Q 1456 2553 1204 2497 
Q 953 2441 691 2322 
L 691 4666 
z
" transform="scale(0.015625)"/>
       </defs>
       <use xlink:href="#DejaVuSans-35"/>
      </g>
     </g>
    </g>
    <g id="xtick_7">
     <g id="line2d_7">
      <g>
       <use xlink:href="#m2fc636fd7a" x="190.08" y="252" style="stroke: #000000; stroke-width: 0.8"/>
      </g>
     </g>
     <g id="text_7">
      <!-- 6 -->
      <g transform="translate(185.62625 269.637812) scale(0.14 -0.14)">
       <defs>
        <path id="DejaVuSans-36" d="M 2113 2584 
Q 1688 2584 1439 2293 
Q 1191 2003 1191 1497 
Q 1191 994 1439 701 
Q 1688 409 2113 409 
Q 2538 409 2786 701 
Q 3034 994 3034 1497 
Q 3034 2003 2786 2293 
Q 2538 2584 2113 2584 
z
M 3366 4563 
L 3366 3988 
Q 3128 4100 2886 4159 
Q 2644 4219 2406 4219 
Q 1781 4219 1451 3797 
Q 1122 3375 1075 2522 
Q 1259 2794 1537 2939 
Q 1816 3084 2150 3084 
Q 2853 3084 3261 2657 
Q 3669 2231 3669 1497 
Q 3669 778 3244 343 
Q 2819 -91 2113 -91 
Q 1303 -91 875 529 
Q 447 1150 447 2328 
Q 447 3434 972 4092 
Q 1497 4750 2381 4750 
Q 2619 4750 2861 4703 
Q 3103 4656 3366 4563 
z
" transform="scale(0.015625)"/>
       </defs>
       <use xlink:href="#DejaVuSans-36"/>
      </g>
     </g>
    </g>
    <g id="xtick_8">
     <g id="line2d_8">
      <g>
       <use xlink:href="#m2fc636fd7a" x="212.4" y="252" style="stroke: #000000; stroke-width: 0.8"/>
      </g>
     </g>
     <g id="text_8">
      <!-- 7 -->
      <g transform="translate(207.94625 269.637812) scale(0.14 -0.14)">
       <defs>
        <path id="DejaVuSans-37" d="M 525 4666 
L 3525 4666 
L 3525 4397 
L 1831 0 
L 1172 0 
L 2766 4134 
L 525 4134 
L 525 4666 
z
" transform="scale(0.015625)"/>
       </defs>
       <use xlink:href="#DejaVuSans-37"/>
      </g>
     </g>
    </g>
    <g id="xtick_9">
     <g id="line2d_9">
      <g>
       <use xlink:href="#m2fc636fd7a" x="234.72" y="252" style="stroke: #000000; stroke-width: 0.8"/>
      </g>
     </g>
     <g id="text_9">
      <!-- 8 -->
      <g transform="translate(230.26625 269.637812) scale(0.14 -0.14)">
       <defs>
        <path id="DejaVuSans-38" d="M 2034 2216 
Q 1584 2216 1326 1975 
Q 1069 1734 1069 1313 
Q 1069 891 1326 650 
Q 1584 409 2034 409 
Q 2484 409 2743 651 
Q 3003 894 3003 1313 
Q 3003 1734 2745 1975 
Q 2488 2216 2034 2216 
z
M 1403 2484 
Q 997 2584 770 2862 
Q 544 3141 544 3541 
Q 544 4100 942 4425 
Q 1341 4750 2034 4750 
Q 2731 4750 3128 4425 
Q 3525 4100 3525 3541 
Q 3525 3141 3298 2862 
Q 3072 2584 2669 2484 
Q 3125 2378 3379 2068 
Q 3634 1759 3634 1313 
Q 3634 634 3220 271 
Q 2806 -91 2034 -91 
Q 1263 -91 848 271 
Q 434 634 434 1313 
Q 434 1759 690 2068 
Q 947 2378 1403 2484 
z
M 1172 3481 
Q 1172 3119 1398 2916 
Q 1625 2713 2034 2713 
Q 2441 2713 2670 2916 
Q 2900 3119 2900 3481 
Q 2900 3844 2670 4047 
Q 2441 4250 2034 4250 
Q 1625 4250 1398 4047 
Q 1172 3844 1172 3481 
z
" transform="scale(0.015625)"/>
       </defs>
       <use xlink:href="#DejaVuSans-38"/>
      </g>
     </g>
    </g>
    <g id="xtick_10">
     <g id="line2d_10">
      <g>
       <use xlink:href="#m2fc636fd7a" x="257.04" y="252" style="stroke: #000000; stroke-width: 0.8"/>
      </g>
     </g>
     <g id="text_10">
      <!-- 9 -->
      <g transform="translate(252.58625 269.637812) scale(0.14 -0.14)">
       <defs>
        <path id="DejaVuSans-39" d="M 703 97 
L 703 672 
Q 941 559 1184 500 
Q 1428 441 1663 441 
Q 2288 441 2617 861 
Q 2947 1281 2994 2138 
Q 2813 1869 2534 1725 
Q 2256 1581 1919 1581 
Q 1219 1581 811 2004 
Q 403 2428 403 3163 
Q 403 3881 828 4315 
Q 1253 4750 1959 4750 
Q 2769 4750 3195 4129 
Q 3622 3509 3622 2328 
Q 3622 1225 3098 567 
Q 2575 -91 1691 -91 
Q 1453 -91 1209 -44 
Q 966 3 703 97 
z
M 1959 2075 
Q 2384 2075 2632 2365 
Q 2881 2656 2881 3163 
Q 2881 3666 2632 3958 
Q 2384 4250 1959 4250 
Q 1534 4250 1286 3958 
Q 1038 3666 1038 3163 
Q 1038 2656 1286 2365 
Q 1534 2075 1959 2075 
z
" transform="scale(0.015625)"/>
       </defs>
       <use xlink:href="#DejaVuSans-39"/>
      </g>
     </g>
    </g>
    <g id="text_11">
     <!-- timestep -->
     <g transform="translate(125.643594 287.187187) scale(0.14 -0.14)">
      <defs>
       <path id="DejaVuSans-74" d="M 1172 4494 
L 1172 3500 
L 2356 3500 
L 2356 3053 
L 1172 3053 
L 1172 1153 
Q 1172 725 1289 603 
Q 1406 481 1766 481 
L 2356 481 
L 2356 0 
L 1766 0 
Q 1100 0 847 248 
Q 594 497 594 1153 
L 594 3053 
L 172 3053 
L 172 3500 
L 594 3500 
L 594 4494 
L 1172 4494 
z
" transform="scale(0.015625)"/>
       <path id="DejaVuSans-69" d="M 603 3500 
L 1178 3500 
L 1178 0 
L 603 0 
L 603 3500 
z
M 603 4863 
L 1178 4863 
L 1178 4134 
L 603 4134 
L 603 4863 
z
" transform="scale(0.015625)"/>
       <path id="DejaVuSans-6d" d="M 3328 2828 
Q 3544 3216 3844 3400 
Q 4144 3584 4550 3584 
Q 5097 3584 5394 3201 
Q 5691 2819 5691 2113 
L 5691 0 
L 5113 0 
L 5113 2094 
Q 5113 2597 4934 2840 
Q 4756 3084 4391 3084 
Q 3944 3084 3684 2787 
Q 3425 2491 3425 1978 
L 3425 0 
L 2847 0 
L 2847 2094 
Q 2847 2600 2669 2842 
Q 2491 3084 2119 3084 
Q 1678 3084 1418 2786 
Q 1159 2488 1159 1978 
L 1159 0 
L 581 0 
L 581 3500 
L 1159 3500 
L 1159 2956 
Q 1356 3278 1631 3431 
Q 1906 3584 2284 3584 
Q 2666 3584 2933 3390 
Q 3200 3197 3328 2828 
z
" transform="scale(0.015625)"/>
       <path id="DejaVuSans-65" d="M 3597 1894 
L 3597 1613 
L 953 1613 
Q 991 1019 1311 708 
Q 1631 397 2203 397 
Q 2534 397 2845 478 
Q 3156 559 3463 722 
L 3463 178 
Q 3153 47 2828 -22 
Q 2503 -91 2169 -91 
Q 1331 -91 842 396 
Q 353 884 353 1716 
Q 353 2575 817 3079 
Q 1281 3584 2069 3584 
Q 2775 3584 3186 3129 
Q 3597 2675 3597 1894 
z
M 3022 2063 
Q 3016 2534 2758 2815 
Q 2500 3097 2075 3097 
Q 1594 3097 1305 2825 
Q 1016 2553 972 2059 
L 3022 2063 
z
" transform="scale(0.015625)"/>
       <path id="DejaVuSans-73" d="M 2834 3397 
L 2834 2853 
Q 2591 2978 2328 3040 
Q 2066 3103 1784 3103 
Q 1356 3103 1142 2972 
Q 928 2841 928 2578 
Q 928 2378 1081 2264 
Q 1234 2150 1697 2047 
L 1894 2003 
Q 2506 1872 2764 1633 
Q 3022 1394 3022 966 
Q 3022 478 2636 193 
Q 2250 -91 1575 -91 
Q 1294 -91 989 -36 
Q 684 19 347 128 
L 347 722 
Q 666 556 975 473 
Q 1284 391 1588 391 
Q 1994 391 2212 530 
Q 2431 669 2431 922 
Q 2431 1156 2273 1281 
Q 2116 1406 1581 1522 
L 1381 1569 
Q 847 1681 609 1914 
Q 372 2147 372 2553 
Q 372 3047 722 3315 
Q 1072 3584 1716 3584 
Q 2034 3584 2315 3537 
Q 2597 3491 2834 3397 
z
" transform="scale(0.015625)"/>
       <path id="DejaVuSans-70" d="M 1159 525 
L 1159 -1331 
L 581 -1331 
L 581 3500 
L 1159 3500 
L 1159 2969 
Q 1341 3281 1617 3432 
Q 1894 3584 2278 3584 
Q 2916 3584 3314 3078 
Q 3713 2572 3713 1747 
Q 3713 922 3314 415 
Q 2916 -91 2278 -91 
Q 1894 -91 1617 61 
Q 1341 213 1159 525 
z
M 3116 1747 
Q 3116 2381 2855 2742 
Q 2594 3103 2138 3103 
Q 1681 3103 1420 2742 
Q 1159 2381 1159 1747 
Q 1159 1113 1420 752 
Q 1681 391 2138 391 
Q 2594 391 2855 752 
Q 3116 1113 3116 1747 
z
" transform="scale(0.015625)"/>
      </defs>
      <use xlink:href="#DejaVuSans-74"/>
      <use xlink:href="#DejaVuSans-69" x="39.208984"/>
      <use xlink:href="#DejaVuSans-6d" x="66.992188"/>
      <use xlink:href="#DejaVuSans-65" x="164.404297"/>
      <use xlink:href="#DejaVuSans-73" x="225.927734"/>
      <use xlink:href="#DejaVuSans-74" x="278.027344"/>
      <use xlink:href="#DejaVuSans-65" x="317.236328"/>
      <use xlink:href="#DejaVuSans-70" x="378.759766"/>
     </g>
    </g>
   </g>
   <g id="matplotlib.axis_2">
    <g id="ytick_1">
     <g id="line2d_11">
      <defs>
       <path id="m366499ef5c" d="M 0 0 
L -3.5 0 
" style="stroke: #000000; stroke-width: 0.8"/>
      </defs>
      <g>
       <use xlink:href="#m366499ef5c" x="45" y="45.432" style="stroke: #000000; stroke-width: 0.8"/>
      </g>
     </g>
     <g id="text_12">
      <!-- 0 -->
      <g transform="translate(35.088437 49.88575) rotate(-90) scale(0.14 -0.14)">
       <use xlink:href="#DejaVuSans-30"/>
      </g>
     </g>
    </g>
    <g id="ytick_2">
     <g id="line2d_12">
      <g>
       <use xlink:href="#m366499ef5c" x="45" y="67.176" style="stroke: #000000; stroke-width: 0.8"/>
      </g>
     </g>
     <g id="text_13">
      <!-- 1 -->
      <g transform="translate(35.088437 71.62975) rotate(-90) scale(0.14 -0.14)">
       <use xlink:href="#DejaVuSans-31"/>
      </g>
     </g>
    </g>
    <g id="ytick_3">
     <g id="line2d_13">
      <g>
       <use xlink:href="#m366499ef5c" x="45" y="88.92" style="stroke: #000000; stroke-width: 0.8"/>
      </g>
     </g>
     <g id="text_14">
      <!-- 2 -->
      <g transform="translate(35.088437 93.37375) rotate(-90) scale(0.14 -0.14)">
       <use xlink:href="#DejaVuSans-32"/>
      </g>
     </g>
    </g>
    <g id="ytick_4">
     <g id="line2d_14">
      <g>
       <use xlink:href="#m366499ef5c" x="45" y="110.664" style="stroke: #000000; stroke-width: 0.8"/>
      </g>
     </g>
     <g id="text_15">
      <!-- 3 -->
      <g transform="translate(35.088437 115.11775) rotate(-90) scale(0.14 -0.14)">
       <use xlink:href="#DejaVuSans-33"/>
      </g>
     </g>
    </g>
    <g id="ytick_5">
     <g id="line2d_15">
      <g>
       <use xlink:href="#m366499ef5c" x="45" y="132.408" style="stroke: #000000; stroke-width: 0.8"/>
      </g>
     </g>
     <g id="text_16">
      <!-- 4 -->
      <g transform="translate(35.088437 136.86175) rotate(-90) scale(0.14 -0.14)">
       <use xlink:href="#DejaVuSans-34"/>
      </g>
     </g>
    </g>
    <g id="ytick_6">
     <g id="line2d_16">
      <g>
       <use xlink:href="#m366499ef5c" x="45" y="154.152" style="stroke: #000000; stroke-width: 0.8"/>
      </g>
     </g>
     <g id="text_17">
      <!-- 5 -->
      <g transform="translate(35.088437 158.60575) rotate(-90) scale(0.14 -0.14)">
       <use xlink:href="#DejaVuSans-35"/>
      </g>
     </g>
    </g>
    <g id="ytick_7">
     <g id="line2d_17">
      <g>
       <use xlink:href="#m366499ef5c" x="45" y="175.896" style="stroke: #000000; stroke-width: 0.8"/>
      </g>
     </g>
     <g id="text_18">
      <!-- 6 -->
      <g transform="translate(35.088437 180.34975) rotate(-90) scale(0.14 -0.14)">
       <use xlink:href="#DejaVuSans-36"/>
      </g>
     </g>
    </g>
    <g id="ytick_8">
     <g id="line2d_18">
      <g>
       <use xlink:href="#m366499ef5c" x="45" y="197.64" style="stroke: #000000; stroke-width: 0.8"/>
      </g>
     </g>
     <g id="text_19">
      <!-- 7 -->
      <g transform="translate(35.088437 202.09375) rotate(-90) scale(0.14 -0.14)">
       <use xlink:href="#DejaVuSans-37"/>
      </g>
     </g>
    </g>
    <g id="ytick_9">
     <g id="line2d_19">
      <g>
       <use xlink:href="#m366499ef5c" x="45" y="219.384" style="stroke: #000000; stroke-width: 0.8"/>
      </g>
     </g>
     <g id="text_20">
      <!-- 8 -->
      <g transform="translate(35.088437 223.83775) rotate(-90) scale(0.14 -0.14)">
       <use xlink:href="#DejaVuSans-38"/>
      </g>
     </g>
    </g>
    <g id="ytick_10">
     <g id="line2d_20">
      <g>
       <use xlink:href="#m366499ef5c" x="45" y="241.128" style="stroke: #000000; stroke-width: 0.8"/>
      </g>
     </g>
     <g id="text_21">
      <!-- 9 -->
      <g transform="translate(35.088437 245.58175) rotate(-90) scale(0.14 -0.14)">
       <use xlink:href="#DejaVuSans-39"/>
      </g>
     </g>
    </g>
    <g id="text_22">
     <!-- horizon -->
     <g transform="translate(17.539062 169.215) rotate(-90) scale(0.14 -0.14)">
      <defs>
       <path id="DejaVuSans-68" d="M 3513 2113 
L 3513 0 
L 2938 0 
L 2938 2094 
Q 2938 2591 2744 2837 
Q 2550 3084 2163 3084 
Q 1697 3084 1428 2787 
Q 1159 2491 1159 1978 
L 1159 0 
L 581 0 
L 581 4863 
L 1159 4863 
L 1159 2956 
Q 1366 3272 1645 3428 
Q 1925 3584 2291 3584 
Q 2894 3584 3203 3211 
Q 3513 2838 3513 2113 
z
" transform="scale(0.015625)"/>
       <path id="DejaVuSans-6f" d="M 1959 3097 
Q 1497 3097 1228 2736 
Q 959 2375 959 1747 
Q 959 1119 1226 758 
Q 1494 397 1959 397 
Q 2419 397 2687 759 
Q 2956 1122 2956 1747 
Q 2956 2369 2687 2733 
Q 2419 3097 1959 3097 
z
M 1959 3584 
Q 2709 3584 3137 3096 
Q 3566 2609 3566 1747 
Q 3566 888 3137 398 
Q 2709 -91 1959 -91 
Q 1206 -91 779 398 
Q 353 888 353 1747 
Q 353 2609 779 3096 
Q 1206 3584 1959 3584 
z
" transform="scale(0.015625)"/>
       <path id="DejaVuSans-72" d="M 2631 2963 
Q 2534 3019 2420 3045 
Q 2306 3072 2169 3072 
Q 1681 3072 1420 2755 
Q 1159 2438 1159 1844 
L 1159 0 
L 581 0 
L 581 3500 
L 1159 3500 
L 1159 2956 
Q 1341 3275 1631 3429 
Q 1922 3584 2338 3584 
Q 2397 3584 2469 3576 
Q 2541 3569 2628 3553 
L 2631 2963 
z
" transform="scale(0.015625)"/>
       <path id="DejaVuSans-7a" d="M 353 3500 
L 3084 3500 
L 3084 2975 
L 922 459 
L 3084 459 
L 3084 0 
L 275 0 
L 275 525 
L 2438 3041 
L 353 3041 
L 353 3500 
z
" transform="scale(0.015625)"/>
       <path id="DejaVuSans-6e" d="M 3513 2113 
L 3513 0 
L 2938 0 
L 2938 2094 
Q 2938 2591 2744 2837 
Q 2550 3084 2163 3084 
Q 1697 3084 1428 2787 
Q 1159 2491 1159 1978 
L 1159 0 
L 581 0 
L 581 3500 
L 1159 3500 
L 1159 2956 
Q 1366 3272 1645 3428 
Q 1925 3584 2291 3584 
Q 2894 3584 3203 3211 
Q 3513 2838 3513 2113 
z
" transform="scale(0.015625)"/>
      </defs>
      <use xlink:href="#DejaVuSans-68"/>
      <use xlink:href="#DejaVuSans-6f" x="63.378906"/>
      <use xlink:href="#DejaVuSans-72" x="124.560547"/>
      <use xlink:href="#DejaVuSans-69" x="165.673828"/>
      <use xlink:href="#DejaVuSans-7a" x="193.457031"/>
      <use xlink:href="#DejaVuSans-6f" x="245.947266"/>
      <use xlink:href="#DejaVuSans-6e" x="307.128906"/>
     </g>
    </g>
   </g>
  </g>
  <g id="axes_2">
   <g id="patch_3">
    <path d="M 282.15 252 
L 293.022 252 
L 293.022 34.56 
L 282.15 34.56 
z
" style="fill: #ffffff"/>
   </g>
   <g id="QuadMesh_2">
    <path d="M 282.15 252 
L 293.022 252 
L 293.022 143.28 
L 282.15 143.28 
L 282.15 252 
" clip-path="url(#p2162888030)" style="fill: #db5f57"/>
    <path d="M 282.15 143.28 
L 293.022 143.28 
L 293.022 34.56 
L 282.15 34.56 
L 282.15 143.28 
" clip-path="url(#p2162888030)" style="fill: #57d3db"/>
   </g>
   <g id="matplotlib.axis_3"/>
   <g id="matplotlib.axis_4">
    <g id="ytick_11">
     <g id="line2d_21">
      <defs>
       <path id="m0515d0e640" d="M 0 0 
L 3.5 0 
" style="stroke: #000000; stroke-width: 0.8"/>
      </defs>
      <g>
       <use xlink:href="#m0515d0e640" x="293.022" y="197.64" style="stroke: #000000; stroke-width: 0.8"/>
      </g>
     </g>
     <g id="text_23">
      <!-- WORK -->
      <g transform="translate(300.022 202.958906) scale(0.14 -0.14)">
       <defs>
        <path id="DejaVuSans-57" d="M 213 4666 
L 850 4666 
L 1831 722 
L 2809 4666 
L 3519 4666 
L 4500 722 
L 5478 4666 
L 6119 4666 
L 4947 0 
L 4153 0 
L 3169 4050 
L 2175 0 
L 1381 0 
L 213 4666 
z
" transform="scale(0.015625)"/>
        <path id="DejaVuSans-4f" d="M 2522 4238 
Q 1834 4238 1429 3725 
Q 1025 3213 1025 2328 
Q 1025 1447 1429 934 
Q 1834 422 2522 422 
Q 3209 422 3611 934 
Q 4013 1447 4013 2328 
Q 4013 3213 3611 3725 
Q 3209 4238 2522 4238 
z
M 2522 4750 
Q 3503 4750 4090 4092 
Q 4678 3434 4678 2328 
Q 4678 1225 4090 567 
Q 3503 -91 2522 -91 
Q 1538 -91 948 565 
Q 359 1222 359 2328 
Q 359 3434 948 4092 
Q 1538 4750 2522 4750 
z
" transform="scale(0.015625)"/>
        <path id="DejaVuSans-52" d="M 2841 2188 
Q 3044 2119 3236 1894 
Q 3428 1669 3622 1275 
L 4263 0 
L 3584 0 
L 2988 1197 
Q 2756 1666 2539 1819 
Q 2322 1972 1947 1972 
L 1259 1972 
L 1259 0 
L 628 0 
L 628 4666 
L 2053 4666 
Q 2853 4666 3247 4331 
Q 3641 3997 3641 3322 
Q 3641 2881 3436 2590 
Q 3231 2300 2841 2188 
z
M 1259 4147 
L 1259 2491 
L 2053 2491 
Q 2509 2491 2742 2702 
Q 2975 2913 2975 3322 
Q 2975 3731 2742 3939 
Q 2509 4147 2053 4147 
L 1259 4147 
z
" transform="scale(0.015625)"/>
        <path id="DejaVuSans-4b" d="M 628 4666 
L 1259 4666 
L 1259 2694 
L 3353 4666 
L 4166 4666 
L 1850 2491 
L 4331 0 
L 3500 0 
L 1259 2247 
L 1259 0 
L 628 0 
L 628 4666 
z
" transform="scale(0.015625)"/>
       </defs>
       <use xlink:href="#DejaVuSans-57"/>
       <use xlink:href="#DejaVuSans-4f" x="98.876953"/>
       <use xlink:href="#DejaVuSans-52" x="177.587891"/>
       <use xlink:href="#DejaVuSans-4b" x="247.070312"/>
      </g>
     </g>
    </g>
    <g id="ytick_12">
     <g id="line2d_22">
      <g>
       <use xlink:href="#m0515d0e640" x="293.022" y="88.92" style="stroke: #000000; stroke-width: 0.8"/>
      </g>
     </g>
     <g id="text_24">
      <!-- SHIRK -->
      <g transform="translate(300.022 94.238906) scale(0.14 -0.14)">
       <defs>
        <path id="DejaVuSans-53" d="M 3425 4513 
L 3425 3897 
Q 3066 4069 2747 4153 
Q 2428 4238 2131 4238 
Q 1616 4238 1336 4038 
Q 1056 3838 1056 3469 
Q 1056 3159 1242 3001 
Q 1428 2844 1947 2747 
L 2328 2669 
Q 3034 2534 3370 2195 
Q 3706 1856 3706 1288 
Q 3706 609 3251 259 
Q 2797 -91 1919 -91 
Q 1588 -91 1214 -16 
Q 841 59 441 206 
L 441 856 
Q 825 641 1194 531 
Q 1563 422 1919 422 
Q 2459 422 2753 634 
Q 3047 847 3047 1241 
Q 3047 1584 2836 1778 
Q 2625 1972 2144 2069 
L 1759 2144 
Q 1053 2284 737 2584 
Q 422 2884 422 3419 
Q 422 4038 858 4394 
Q 1294 4750 2059 4750 
Q 2388 4750 2728 4690 
Q 3069 4631 3425 4513 
z
" transform="scale(0.015625)"/>
        <path id="DejaVuSans-48" d="M 628 4666 
L 1259 4666 
L 1259 2753 
L 3553 2753 
L 3553 4666 
L 4184 4666 
L 4184 0 
L 3553 0 
L 3553 2222 
L 1259 2222 
L 1259 0 
L 628 0 
L 628 4666 
z
" transform="scale(0.015625)"/>
        <path id="DejaVuSans-49" d="M 628 4666 
L 1259 4666 
L 1259 0 
L 628 0 
L 628 4666 
z
" transform="scale(0.015625)"/>
       </defs>
       <use xlink:href="#DejaVuSans-53"/>
       <use xlink:href="#DejaVuSans-48" x="63.476562"/>
       <use xlink:href="#DejaVuSans-49" x="138.671875"/>
       <use xlink:href="#DejaVuSans-52" x="168.164062"/>
       <use xlink:href="#DejaVuSans-4b" x="237.646484"/>
      </g>
     </g>
    </g>
   </g>
   <g id="LineCollection_1"/>
   <g id="patch_4">
    <path d="M 282.15 252 
L 287.586 252 
L 293.022 252 
L 293.022 34.56 
L 287.586 34.56 
L 282.15 34.56 
L 282.15 252 
z
" style="fill: none"/>
   </g>
  </g>
 </g>
 <defs>
  <clipPath id="p3074fe4192">
   <rect x="45" y="34.56" width="223.2" height="217.44"/>
  </clipPath>
  <clipPath id="p2162888030">
   <rect x="282.15" y="34.56" width="10.872" height="217.44"/>
  </clipPath>
 </defs>
</svg>
